<?xml version="1.0" encoding="UTF-8"?>
<svg version="1.1" xmlns="http://www.w3.org/2000/svg" width="4320" height="4320">
<path d="M0 0 C4.39730233 3.76168803 5.25415 9.19949608 6.875 14.5625 C7.22578613 15.71621094 7.57657227 16.86992188 7.93798828 18.05859375 C10.31959981 26.13526805 12.28043398 34.23291236 13.875 42.5 C14.06562012 43.48685791 14.25624023 44.47371582 14.45263672 45.49047852 C17.62733428 63.01452176 18.37339699 80.22296324 18.3125 98 C18.31034485 99.13028625 18.3081897 100.26057251 18.30596924 101.42510986 C18.25582858 117.80023681 17.95134083 133.84916875 15 150 C14.79600586 151.14404297 14.59201172 152.28808594 14.38183594 153.46679688 C11.31005155 170.28783451 7.22634854 186.72216249 2 203 C1.58862793 204.28777344 1.58862793 204.28777344 1.16894531 205.6015625 C-15.98708546 258.56593945 -46.15733221 306.73698085 -82 349 C-82.53979492 349.6388916 -83.07958984 350.2777832 -83.63574219 350.93603516 C-95.61600975 365.07566402 -108.35820692 378.4410395 -121.4375 391.5625 C-122.36103271 392.49070557 -123.28456543 393.41891113 -124.23608398 394.37524414 C-128.77431467 398.90279567 -133.3626706 403.29909551 -138.22827148 407.47338867 C-140.82066299 409.70712494 -143.30849567 412.04259877 -145.8125 414.375 C-150.38432457 418.59398254 -155.07254844 422.61147468 -159.921875 426.51171875 C-162.22140759 428.37060486 -164.49913548 430.24614776 -166.765625 432.14453125 C-176.78560461 440.51902907 -187.07697719 448.44977988 -197.58251953 456.20458984 C-199.77614014 457.83374415 -201.95154336 459.48354327 -204.12109375 461.14453125 C-227.92409421 479.22500639 -253.33990238 495.68765597 -279 511 C-279.85126465 511.51208008 -280.7025293 512.02416016 -281.57958984 512.55175781 C-296.21093808 521.34708129 -311.04381099 529.77059369 -326 538 C-327.0317334 538.56879883 -328.0634668 539.13759766 -329.12646484 539.72363281 C-361.02551275 557.24053718 -393.67132461 573.46359918 -426.9453125 588.19921875 C-430.43899448 589.7475358 -433.92382476 591.31484038 -437.40660095 592.88751221 C-472.18595766 608.59023271 -507.50995823 622.98894334 -543 637 C-543.77245056 637.30532654 -544.54490112 637.61065308 -545.34075928 637.92523193 C-588.6144707 655.02649641 -632.21354262 671.26136046 -676 687 C-677.36822906 687.49249237 -677.36822906 687.49249237 -678.76409912 687.99493408 C-715.34118003 701.15785189 -752.1329345 713.67735513 -789 726 C-790.15479858 726.38607422 -791.30959717 726.77214844 -792.49938965 727.16992188 C-877.80400668 755.65799031 -964.12371927 781.14028709 -1083 813 C-1084.15526184 813.30572937 -1085.31052368 813.61145874 -1086.50079346 813.92645264 C-1167.12843811 835.25737776 -1248.41850828 853.88024709 -1436.62109375 890.6875 C-1472.68291242 896.70396427 -1472.68291242 896.70396427 -1508 906 C-1509.41204714 906.43997843 -1510.82415985 906.87974647 -1512.23632812 907.31933594 C-1574.26185673 926.73579173 -1633.79398063 955.58208743 -1681 1001 C-1681.52078125 1001.49886719 -1682.0415625 1001.99773438 -1682.578125 1002.51171875 C-1689.59715747 1009.27014358 -1696.04919823 1016.2639577 -1702 1024 C-1702.41572266 1024.53399414 -1702.83144531 1025.06798828 -1703.25976562 1025.61816406 C-1725.43159234 1054.24445588 -1740.44064276 1087.10606152 -1746 1123 C-1746.11424316 1123.67514648 -1746.22848633 1124.35029297 -1746.34619141 1125.04589844 C-1757.87049617 1194.19172704 -1729.29519246 1277.56324639 -1689.64892578 1333.70361328 C-1682.14920178 1344.14815044 -1673.90307636 1353.73104379 -1665 1363 C-1664.1440625 1363.8971875 -1663.288125 1364.794375 -1662.40625 1365.71875 C-1648.29060072 1380.19175749 -1631.58783194 1392.11375131 -1614 1402 C-1613.30487305 1402.39541992 -1612.60974609 1402.79083984 -1611.89355469 1403.19824219 C-1564.75001862 1429.79689945 -1511.47285697 1437.7130448 -1458.27685547 1441.67529297 C-1454.37110421 1441.967746 -1450.46888631 1442.29546483 -1446.56640625 1442.62890625 C-1416.56863299 1445.09376551 -1386.86871353 1444.78856965 -1357 1441 C-1355.98060333 1440.87271515 -1355.98060333 1440.87271515 -1354.94061279 1440.74285889 C-1278.37714721 1431.16436392 -1202.69635337 1410.79008411 -1023.796875 1285.07421875 C-1021.8253757 1282.79842282 -1019.78865605 1280.59077333 -1017.75 1278.375 C-1012.16346877 1272.17404486 -1007.07503139 1265.61975475 -1002 1259 C-1001.5162793 1258.37319336 -1001.03255859 1257.74638672 -1000.53417969 1257.10058594 C-940.71685816 1179.4367764 -909.87030347 1084.7117109 -896 961 C-895.91242432 959.84193848 -895.82484863 958.68387695 -895.73461914 957.49072266 C-894.69643058 942.68690171 -894.88415513 927.85396452 -894.93133545 913.02319336 C-894.94172645 909.40218703 -894.94616621 905.78117332 -894.95117188 902.16015625 C-894.96176683 895.10675329 -894.97874123 888.05337958 -895 881 C-893.88222168 880.66081543 -892.76444336 880.32163086 -891.61279297 879.97216797 C-831.93920071 861.84769684 -772.4793403 843.04407823 -713.18625641 823.71270752 C-710.93844151 822.97993227 -708.6905115 822.24751095 -706.44256592 821.51513672 C-671.65730129 810.18041749 -636.88090178 798.8435328 -602.39916992 786.60948181 C-596.36586378 784.47213156 -590.31708123 782.38254514 -584.26171875 780.30859375 C-488.76808398 751.06285843 -488.76808398 751.06285843 -401.85546875 704.25 C-400 703 -400 703 -398 703 C-398.02505615 704.1446875 -398.0501123 705.289375 -398.07592773 706.46875 C-399.97531189 794.59289999 -400.75841541 882.7612111 -373.40307617 1274.59512329 C-367.53585954 1289.17357367 -363.37705248 1304.25022103 -359.13713074 1319.35805511 C-358.26945473 1322.44529227 -357.39543744 1325.53072248 -356.52181625 1328.61628151 C-353.65719436 1338.73750089 -350.82308809 1348.86712773 -348 1359 C-347.71311813 1360.02877762 -347.71311813 1360.02877762 -347.42044067 1361.07833862 C-295.766949 1546.32203283 -295.766949 1546.32203283 -301 1584 C-301.12568359 1585.02480469 -301.12568359 1585.02480469 -301.25390625 1586.0703125 C-305.89923124 1623.62547506 -323.28244114 1655.88874713 -348 1684 C-348.78503906 1684.8971875 -349.57007812 1685.794375 -350.37890625 1686.71875 C-357.78192895 1695.06163472 -365.43522755 1702.75178416 -374.1640625 1709.7109375 C-375.98183528 1711.17817559 -377.77178586 1712.68098752 -379.5234375 1714.2265625 C-394.11069444 1727.01714849 -411.1545729 1737.43179741 -428 1747 C-428.58442871 1747.33402832 -429.16885742 1747.66805664 -429.77099609 1748.01220703 C-478.10427692 1775.43116813 -535.09851392 1784.532921 -589 1770 C-625.24047831 1759.68526592 -657.35345557 1741.32649454 -686 1717 C-687.01449219 1716.16984375 -688.02898437 1715.3396875 -689.07421875 1714.484375 C-703.66340515 1702.43196987 -717.41352997 1688.97474245 -729 1674 C-730.55851371 1672.16327673 -732.12129646 1670.33017043 -733.6875 1668.5 C-738.51469484 1662.7207544 -742.96749984 1656.70448898 -747.4050293 1650.62304688 C-751.86063392 1644.52219487 -756.4055828 1638.49688271 -761 1632.5 C-766.65391112 1625.11387575 -772.21470782 1617.66804732 -777.7109375 1610.1640625 C-782.07277032 1604.22328567 -786.52054548 1598.3524674 -791 1592.5 C-796.65353395 1585.11358208 -802.21470194 1577.66805534 -807.7109375 1570.1640625 C-812.07277032 1564.22328567 -816.52054548 1558.3524674 -821 1552.5 C-826.64907609 1545.11940633 -832.20649686 1537.68019928 -837.69775391 1530.18164062 C-842.85255038 1523.15997192 -848.13292092 1516.23747455 -853.42578125 1509.31958008 C-858.04326049 1503.27742562 -862.58920472 1497.19542627 -867 1491 C-871.27423557 1493.31849679 -874.63590864 1496.28801876 -878.125 1499.625 C-882.91655343 1504.12366129 -887.80292245 1508.40949019 -892.9296875 1512.52734375 C-895.3047827 1514.44011126 -897.66112289 1516.3692584 -900.0078125 1518.31640625 C-908.54034749 1525.39610159 -917.14413827 1532.32688852 -926 1539 C-926.73057617 1539.55268555 -927.46115234 1540.10537109 -928.21386719 1540.67480469 C-946.83095728 1554.75298618 -965.68457469 1568.26210804 -985.16552734 1581.12353516 C-988.49311253 1583.32644814 -991.80586745 1585.55082153 -995.11767578 1587.77734375 C-1065.21998391 1634.81373114 -1141.26483245 1673.68662984 -1542 1776 C-1542.80078979 1776.04130035 -1543.60157959 1776.08260071 -1544.42663574 1776.12515259 C-1561.11945084 1776.96698037 -1577.7875909 1777.20214015 -1594.5 1777.1875 C-1596.42971146 1777.18659363 -1596.42971146 1777.18659363 -1598.39840698 1777.18566895 C-1620.6584018 1777.15747106 -1642.7999339 1776.63436069 -1665 1775 C-1665.75851257 1774.94626221 -1666.51702515 1774.89252441 -1667.29852295 1774.8371582 C-1717.06047748 1771.30132564 -1768.61022719 1765.34002058 -1817 1753 C-1817.73003235 1752.81499939 -1818.4600647 1752.62999878 -1819.21221924 1752.43939209 C-1900.542625 1731.73492274 -1978.87511391 1696.80366624 -2052 1640 C-2052.56219238 1639.55414551 -2053.12438477 1639.10829102 -2053.70361328 1638.64892578 C-2056.84682889 1636.15031691 -2059.93382135 1633.59231468 -2063 1631 C-2063.50982422 1630.57364258 -2064.01964844 1630.14728516 -2064.54492188 1629.70800781 C-2077.80603815 1618.61021852 -2090.31157302 1606.76046909 -2102.5625 1594.5625 C-2103.30016602 1593.82950684 -2104.03783203 1593.09651367 -2104.79785156 1592.34130859 C-2108.84534842 1588.28182598 -2112.71889432 1584.12635569 -2116.46118164 1579.78393555 C-2118.41026312 1577.52438639 -2120.42293068 1575.32617404 -2122.4375 1573.125 C-2126.00073717 1569.16717617 -2129.40789214 1565.13380731 -2132.69140625 1560.94140625 C-2134.38626942 1558.7819613 -2136.10084629 1556.65049166 -2137.83984375 1554.52734375 C-2194.31646677 1484.71271673 -2229.22934788 1398.01020973 -2256.80859375 1233.07214355 C-2256.98715161 1231.13909527 -2257.17298194 1229.20672258 -2257.359375 1227.27441406 C-2260.92835726 1189.02469643 -2261.98584279 1148.89141827 -2254.41790771 1111.0947876 C-2253.98113822 1108.90545421 -2253.55926816 1106.71358391 -2253.13916016 1104.52099609 C-2240.34768005 1038.32685078 -2216.51709885 973.44154471 -2181 916 C-2180.47825195 915.15373047 -2179.95650391 914.30746094 -2179.41894531 913.43554688 C-2171.45235258 900.57315422 -2163.07699488 888.10465041 -2154 876 C-2153.54109375 875.38801758 -2153.0821875 874.77603516 -2152.609375 874.14550781 C-2146.93051482 866.60849117 -2141.03915079 859.25102051 -2135 852 C-2134.37206543 851.24251465 -2134.37206543 851.24251465 -2133.73144531 850.46972656 C-2123.10405179 837.66801087 -2111.78251882 825.60915255 -2099.99853516 813.86816406 C-2098.23351456 812.1085652 -2096.47398867 810.34359603 -2094.71484375 808.578125 C-2088.98008276 802.83964216 -2083.21783791 797.22033339 -2077 792 C-2075.95523704 791.099529 -2074.91094377 790.19851267 -2073.8671875 789.296875 C-2055.50316004 773.66587512 -2036.26604101 759.08237195 -2016 746 C-2015.31067383 745.54979492 -2014.62134766 745.09958984 -2013.91113281 744.63574219 C-2000.306086 735.76235672 -1986.25475677 727.77805848 -1972 720 C-1971.12150391 719.5167627 -1970.24300781 719.03352539 -1969.33789062 718.53564453 C-1898.09068775 679.48829618 -1818.9920695 659.45455656 -1735.0640564 644.23617554 C-1638.12572877 626.67117559 -1541.58932764 606.74238589 -1316 557 C-1315.15226013 556.80509224 -1314.30452026 556.61018448 -1313.43109131 556.40937042 C-1288.59908155 550.69774791 -1263.79104053 544.88679666 -1239 539 C-1238.1762085 538.80448547 -1237.35241699 538.60897095 -1236.50366211 538.40753174 C-1144.08684504 516.47117821 -1051.96204087 493.33057602 -669.08331299 381.99609375 C-665.97513862 380.99196829 -662.86629829 379.98992765 -659.75732422 378.98828125 C-632.92327882 370.33760013 -606.21689833 361.38527794 -579.63525391 351.98779297 C-574.70348364 350.2456192 -569.76654505 348.51852901 -564.82832336 346.79473877 C-493.25031214 321.80566093 -422.34824024 294.67836397 -353 264 C-351.81809082 263.47776855 -350.63618164 262.95553711 -349.41845703 262.41748047 C-323.99300323 251.15866173 -298.82322029 239.39765155 -273.8125 227.25 C-273.0113678 226.86189148 -272.2102356 226.47378296 -271.38482666 226.07391357 C-259.45843044 220.29034927 -247.69614174 214.23521754 -236 208 C-234.33795532 207.11779785 -234.33795532 207.11779785 -232.64233398 206.21777344 C-218.45701268 198.66657928 -204.51264436 190.74965825 -190.67724609 182.57666016 C-188.28704997 181.16904693 -185.89021292 179.77417669 -183.48828125 178.38671875 C-144.87392705 156.03199191 -107.5225675 130.37246731 -74.51171875 100.265625 C-73.1002869 98.99248274 -71.68231581 97.7262241 -70.24243164 96.48535156 C-64.97188968 91.94189314 -59.97970653 87.17244708 -55.0625 82.25 C-54.26980713 81.45650146 -53.47711426 80.66300293 -52.66040039 79.84545898 C-47.0295941 74.15552141 -41.90843618 68.32509866 -37 62 C-35.56261426 60.31240267 -34.12510941 58.62490679 -32.6875 56.9375 C-18.90267803 39.98816237 -7.66891705 20.4645687 0 0 Z " fill="#004AAD" transform="translate(3262,1414)"/>
<path d="M0 0 C2.00463398 -0.00240932 4.00926796 -0.0048218 6.01390165 -0.00746042 C12.3060646 -0.01550726 18.59821335 -0.01805431 24.89038086 -0.01733398 C30.52387371 -0.01680521 36.15729646 -0.02378267 41.79077148 -0.0378418 C77.34977593 -0.12448564 112.81924451 0.31424086 148.33984375 2.16796875 C149.0996265 2.2069138 149.85940926 2.24585884 150.64221573 2.28598404 C159.67206029 2.7494938 168.69446294 3.2967266 177.71484375 3.91796875 C178.93115479 4.00033783 180.14746582 4.08270691 181.40063477 4.16757202 C290.69162922 11.63933256 400.53027106 27.83253224 615.39160156 103.76367188 C618.34361379 105.16976448 621.30519653 106.55369545 624.26953125 107.93359375 C651.38491784 120.62378469 677.45457397 135.52686128 702.33984375 152.16796875 C702.99082031 152.60286621 703.64179688 153.03776367 704.3125 153.48583984 C721.28530526 164.87837141 737.66101645 177.0515521 753.33984375 190.16796875 C753.93603516 190.66506348 754.53222656 191.1621582 755.14648438 191.67431641 C768.30478876 202.68188361 780.68869638 214.43858225 792.83984375 226.54296875 C794.09498779 227.79110352 794.09498779 227.79110352 795.37548828 229.06445312 C800.23693643 233.93858416 804.8671327 238.93665489 809.33984375 244.16796875 C810.30082821 245.26282169 811.26301453 246.35662121 812.2265625 247.44921875 C819.72305103 256.03173364 826.62742872 264.96310172 833.33984375 274.16796875 C833.77538574 274.76077637 834.21092773 275.35358398 834.65966797 275.96435547 C845.87563592 291.2510169 855.78307969 307.22146806 865.00878906 323.78027344 C865.82362582 325.24195787 866.64235623 326.70149075 867.46777344 328.15722656 C893.09877984 373.36100149 911.73317245 430.68592119 910.33984375 483.16796875 C903.4369894 485.84847856 896.42819569 488.11312219 889.37109375 490.3515625 C888.07982457 490.76263023 886.78860165 491.17384328 885.49742126 491.58518982 C882.00924917 492.69571977 878.52016588 493.80335981 875.0308342 494.91024017 C872.82172801 495.6112171 870.61287033 496.31297188 868.40408325 497.01495361 C845.24424079 504.37468016 822.05999314 511.6544678 798.86044693 518.88793278 C795.52149099 519.92901217 792.18259061 520.97026954 788.84375 522.01171875 C787.84403671 522.32354756 787.84403671 522.32354756 786.8241272 522.64167595 C769.9436855 527.90817415 753.07907527 533.22483862 736.21484375 538.54296875 C734.67466417 539.02862134 733.13448269 539.5142679 731.59429932 539.99990845 C730.83127125 540.24050208 730.06824318 540.48109571 729.28209305 540.72898006 C726.19844083 541.70129398 723.11478794 542.67360578 720.03112793 543.645895 C718.48911173 544.13210087 716.9470992 544.61831838 715.40509033 545.1045475 C698.32414773 550.49037813 681.23875527 555.8620174 664.15234375 561.23046875 C662.69993041 561.68682729 661.24751749 562.14318715 659.79510498 562.59954834 C653.99269015 564.42269759 648.1902484 566.24576109 642.38775635 568.06866455 C628.55968335 572.41287702 614.732108 576.75867221 600.90460968 581.10471344 C595.8060876 582.70718224 590.70749993 584.30944225 585.60888672 585.91162109 C582.69758615 586.82648149 579.78629074 587.74135833 576.875 588.65625 C576.15423531 588.8827549 575.43347061 589.1092598 574.69086456 589.34262848 C564.3779849 592.58361142 554.06583697 595.82691424 543.75411034 599.07156372 C514.70144845 608.21288703 485.64440861 617.33990311 456.5682869 626.40637589 C454.5373379 627.03985146 452.5065478 627.67383405 450.47579956 628.30795288 C446.7578542 629.46878933 443.03914684 630.62717064 439.3203125 631.78515625 C438.2136322 632.13084152 437.1069519 632.47652679 435.96673584 632.83268738 C434.96861877 633.14297379 433.97050171 633.45326019 432.94213867 633.77294922 C432.07183517 634.04412567 431.20153168 634.31530212 430.30485535 634.59469604 C428.33984375 635.16796875 428.33984375 635.16796875 427.33984375 635.16796875 C427.3555542 634.29922119 427.37126465 633.43047363 427.38745117 632.53540039 C428.41616744 566.62376928 408.96127129 510.22434686 363.96484375 461.6015625 C359.31050234 456.82255123 354.3329295 452.55788334 349.12109375 448.3984375 C347.36817553 446.99265618 345.63553 445.56084115 343.93359375 444.09375 C329.57921281 431.80621822 313.12022636 421.77499767 296.33984375 413.16796875 C295.35806152 412.66410645 294.3762793 412.16024414 293.36474609 411.64111328 C233.6838461 381.33177444 167.32951573 368.19921496 101.08984375 362.48046875 C100.38579407 362.41953033 99.68174438 362.35859192 98.95635986 362.29580688 C94.08681814 361.88027819 89.21501616 361.51074381 84.33984375 361.16796875 C83.3294957 361.0942807 83.3294957 361.0942807 82.29873657 361.019104 C65.56861319 359.83643897 48.7904 359.92240508 32.02734375 359.91796875 C31.2614455 359.91752689 30.49554726 359.91708504 29.70643997 359.91662979 C5.8020166 359.90940979 -17.90153498 360.29679086 -41.66015625 363.16796875 C-42.40046082 363.25518188 -43.14076538 363.34239502 -43.90350342 363.43225098 C-108.746303 371.08628933 -170.28572515 388.94892417 -228.66015625 418.16796875 C-229.48950684 418.57869629 -230.31885742 418.98942383 -231.17333984 419.41259766 C-251.00925844 429.27960474 -269.93299307 441.32785182 -287.62060547 454.63867188 C-289.66442822 456.17117196 -291.72421524 457.67957524 -293.7890625 459.18359375 C-307.00207498 468.86186467 -319.16201408 479.64913474 -331.15673828 490.78222656 C-332.72981879 492.23217865 -334.31651306 493.66599645 -335.90625 495.09765625 C-342.77225168 501.30681314 -349.16161725 507.76557325 -355.31738281 514.67675781 C-356.66071309 516.16858715 -358.02645919 517.63583993 -359.40234375 519.09765625 C-365.78903746 525.90062755 -371.61390087 533.01568434 -377.29833984 540.41210938 C-378.61620012 542.11129387 -379.95512736 543.79076915 -381.3046875 545.46484375 C-399.69710236 568.33867636 -415.03228759 593.21452183 -428.66015625 619.16796875 C-429.12663574 620.05033203 -429.59311523 620.93269531 -430.07373047 621.84179688 C-438.92246908 638.67824878 -446.46521301 656.13114364 -452.7421875 674.08984375 C-457.85430204 688.27676338 -469.49311419 700.30588248 -479.66015625 711.16796875 C-480.54316406 712.11671875 -481.42617187 713.06546875 -482.3359375 714.04296875 C-508.50227864 741.52460884 -544.48993064 757.63682548 -581.66015625 763.16796875 C-582.67021729 763.32265625 -582.67021729 763.32265625 -583.70068359 763.48046875 C-591.35221998 764.49559796 -599.07995392 764.41174918 -606.78515625 764.41796875 C-607.5382608 764.41864349 -608.29136536 764.41931824 -609.06729126 764.42001343 C-622.1373163 764.40149795 -634.78135898 763.51150702 -647.66015625 761.16796875 C-648.53978027 761.01763184 -649.4194043 760.86729492 -650.32568359 760.71240234 C-674.6885511 756.45365458 -699.53642128 748.21672665 -721.66015625 737.16796875 C-722.79783447 736.61423584 -722.79783447 736.61423584 -723.95849609 736.04931641 C-736.01749339 730.1510271 -746.95738726 723.25804555 -757.66015625 715.16796875 C-759.08134766 714.11416016 -759.08134766 714.11416016 -760.53125 713.0390625 C-802.75338162 680.1996268 -824.96950379 631.07987286 -832.66015625 579.16796875 C-832.77875 578.37261719 -832.89734375 577.57726563 -833.01953125 576.7578125 C-842.71414598 507.62597648 -825.49926748 430.7942321 -796.66015625 368.16796875 C-796.2027002 367.16411133 -795.74524414 366.16025391 -795.27392578 365.12597656 C-778.0485582 327.50572646 -755.17366931 292.87172906 -728.66015625 261.16796875 C-727.99959229 260.377854 -727.99959229 260.377854 -727.32568359 259.57177734 C-715.9353539 245.99450434 -703.79250762 233.21553668 -691.28515625 220.66796875 C-690.35783691 219.73597656 -689.43051758 218.80398438 -688.47509766 217.84375 C-683.3627537 212.74336582 -678.15326611 207.85356682 -672.66015625 203.16796875 C-671.46852829 202.12282857 -670.27840117 201.0759745 -669.08984375 200.02734375 C-661.44088721 193.32132168 -653.67488701 186.8321783 -645.59472656 180.65185547 C-644.26960754 179.63544034 -642.94884006 178.6133339 -641.63183594 177.58642578 C-630.37493796 168.81304553 -618.71455988 160.7102999 -606.84765625 152.79296875 C-606.15658783 152.33078949 -605.46551941 151.86861023 -604.75350952 151.39242554 C-595.21956101 145.02801418 -585.54203891 138.97655096 -575.66015625 133.16796875 C-574.76643311 132.63977539 -573.87270996 132.11158203 -572.9519043 131.56738281 C-558.15092939 122.86889426 -542.98694708 114.89568915 -527.66015625 107.16796875 C-526.04826416 106.35392578 -526.04826416 106.35392578 -524.40380859 105.5234375 C-442.69086569 64.53607575 -352.73051182 39.57637546 -79.34765625 2.41796875 C-78.33866272 2.35889343 -77.32966919 2.29981812 -76.2901001 2.23895264 C-50.86230481 0.77388429 -25.46992887 0.00740071 0 0 Z " fill="#00A86B" transform="translate(1925.66015625,1110.83203125)"/>
</svg>
